<?xml version="1.0" encoding="utf-8"?>
<!-- Generator: Adobe Illustrator 21.1.0, SVG Export Plug-In . SVG Version: 6.00 Build 0)  -->
<svg version="1.1" xmlns="http://www.w3.org/2000/svg" xmlns:xlink="http://www.w3.org/1999/xlink" x="0px" y="0px"
	 width="47px" height="20.6px" viewBox="0 0 47 20.6" style="enable-background:new 0 0 47 20.6;" xml:space="preserve">
<style type="text/css">
	.st0{fill:#36D7C3;}
</style>
<g >
	<g >
		<path class="st0" d="M20.4,20.3c-0.3,0-0.6,0-0.8,0c-1.9-0.2-3.5-1.1-4.5-2.4C14.7,17.2,8,6.9,5.9,3.8H1.7C0.7,3.8,0,3.1,0,2.2
			s0.7-1.7,1.7-1.7h6.1l0.5,0.8c3.7,5.6,9.3,14.1,9.6,14.6c0.4,0.6,1.2,1,2.1,1.1c1.2,0.1,2.3-0.2,3.2-1c0.7-0.6,1.7-0.6,2.3,0.1
			c0.6,0.7,0.6,1.7-0.1,2.3l0,0C24,19.6,22.2,20.3,20.4,20.3z"/>
		<path class="st0" d="M36.4,20.7L36.4,20.7c-2.3,0-4.4-0.9-6.1-2.4c-2.1-2-7.7-11.4-9.5-14.4h-6.9c-0.9,0-1.7-0.7-1.7-1.7
			s0.7-1.7,1.7-1.7h8.8l0.5,0.8c2.8,4.8,7.9,13,9.4,14.5c1,0.9,2.3,1.5,3.7,1.5h0c2.2,0,4-0.7,5.3-1.9s1.9-3,1.9-5.1
			c0-3.9-3.1-7-7-7c-2,0-4,0.9-5.2,2.5c-0.6,0.7-1.6,0.8-2.3,0.2c-0.7-0.6-0.8-1.6-0.2-2.3l0,0C30.8,1.4,33.7,0,36.7,0
			C42.4,0,47,4.6,47,10.3c0,2.9-1,5.6-2.9,7.5C42.2,19.6,39.5,20.7,36.4,20.7z"/>
	</g>
</g>
</svg>
